/* XPM */
static char *_509595aa8124fabaa9267f68dfd77edH5eshes7unTZyvS4[] = {
/* columns rows colors chars-per-pixel */
"64 64 256 2 ",
"   c #020502",
".  c #0B0401",
"X  c #040C02",
"o  c #090C03",
"O  c #060A09",
"+  c #120503",
"@  c #051303",
"#  c #0A1403",
"$  c #061903",
"%  c #0C1B03",
"&  c #041509",
"*  c #0B140A",
"=  c #051C0A",
"-  c #0C1C09",
";  c #121504",
":  c #171607",
">  c #131C04",
",  c #1B1C03",
"<  c #131C09",
"1  c #0F1D12",
"2  c #2B1207",
"3  c #251D04",
"4  c #052607",
"5  c #0D2303",
"6  c #0D2B03",
"7  c #0D230A",
"8  c #0D2A0C",
"9  c #132404",
"0  c #1A2404",
"q  c #142B04",
"w  c #1B2C04",
"e  c #13230A",
"r  c #1B250A",
"t  c #132B0B",
"y  c #1B2B0B",
"u  c #0A350B",
"i  c #153203",
"p  c #1C3304",
"a  c #1D3A04",
"s  c #15320C",
"d  c #1C340B",
"f  c #153A08",
"g  c #1D3A0B",
"h  c #0C2913",
"j  c #172712",
"k  c #1B2C13",
"l  c #0E3912",
"z  c #133314",
"x  c #1B3313",
"c  c #163817",
"v  c #1A3B13",
"b  c #1B3C1A",
"n  c #232C04",
"m  c #282708",
"M  c #222B0B",
"N  c #382A09",
"B  c #243404",
"V  c #2A3303",
"C  c #233B04",
"Z  c #2A3B05",
"A  c #22330B",
"S  c #2A350B",
"D  c #243B0B",
"F  c #2A3C0B",
"G  c #373707",
"H  c #323C0B",
"J  c #232E11",
"K  c #262916",
"L  c #362813",
"P  c #243411",
"I  c #2B3513",
"U  c #233B13",
"Y  c #2B3C13",
"T  c #263A1A",
"R  c #343A15",
"E  c #1B3F23",
"W  c #2D3823",
"Q  c #493511",
"!  c #553C25",
"~  c #0B490D",
"^  c #19470A",
"/  c #1C5508",
"(  c #1D4314",
")  c #1A4717",
"_  c #1A5415",
"`  c #244304",
"'  c #2B4304",
"]  c #254B05",
"[  c #2C4A04",
"{  c #24430B",
"}  c #2B440B",
"|  c #254B0C",
" . c #2C4B0D",
".. c #324304",
"X. c #334C05",
"o. c #32440C",
"O. c #324B0C",
"+. c #3B4909",
"@. c #285609",
"#. c #2D530C",
"$. c #335305",
"%. c #385B05",
"&. c #34530C",
"*. c #3B540C",
"=. c #3C5B0B",
"-. c #234313",
";. c #2B4412",
":. c #244B14",
">. c #2C4B14",
",. c #2C441A",
"<. c #23481A",
"1. c #2B4A1B",
"2. c #334413",
"3. c #344C13",
"4. c #3A4C13",
"5. c #33451B",
"6. c #3B4418",
"7. c #334D1C",
"8. c #394B1B",
"9. c #275716",
"0. c #2C5314",
"q. c #345313",
"w. c #3B5413",
"e. c #335C13",
"r. c #3B5B13",
"t. c #34541B",
"y. c #3B541B",
"u. c #365A1A",
"i. c #3C5C1A",
"p. c #2C640B",
"a. c #3A6608",
"s. c #2A6819",
"d. c #386518",
"f. c #377211",
"g. c #3A7117",
"h. c #1D4522",
"j. c #1A5320",
"k. c #264925",
"l. c #374826",
"z. c #2B5627",
"x. c #395725",
"c. c #395534",
"v. c #146C29",
"b. c #386627",
"n. c #35702F",
"m. c #464A07",
"M. c #445909",
"N. c #59500C",
"B. c #484A15",
"V. c #574A16",
"C. c #465A16",
"Z. c #41531C",
"A. c #595917",
"S. c #694518",
"D. c #64571C",
"F. c #496808",
"G. c #556A07",
"H. c #497509",
"J. c #567608",
"K. c #486717",
"L. c #44631B",
"P. c #556916",
"I. c #497518",
"U. c #56761A",
"Y. c #6B740E",
"T. c #676D19",
"R. c #647A19",
"E. c #424C26",
"W. c #514D2A",
"Q. c #465A27",
"!. c #585728",
"~. c #455933",
"^. c #585A36",
"/. c #71562B",
"(. c #476726",
"). c #556929",
"_. c #487828",
"`. c #567426",
"'. c #496637",
"]. c #536636",
"[. c #4C7739",
"{. c #597638",
"}. c #686A25",
"|. c #667826",
" X c #616B3B",
".X c #687836",
"XX c #767938",
"oX c #586B45",
"OX c #587845",
"+X c #687A45",
"@X c #747547",
"#X c #897531",
"$X c #876E43",
"%X c #218732",
"&X c #558711",
"*X c #6E8E0F",
"=X c #678718",
"-X c #7AA11C",
";X c #578828",
":X c #4F8B33",
">X c #578738",
",X c #698829",
"<X c #748929",
"1X c #639C21",
"2X c #769829",
"3X c #69883B",
"4X c #768735",
"5X c #6A9536",
"6X c #789639",
"7X c #5FA53F",
"8X c #73A733",
"9X c #399A46",
"0X c #34A649",
"qX c #578945",
"wX c #52914A",
"eX c #668948",
"rX c #778A47",
"tX c #6A9947",
"yX c #789447",
"uX c #6A8955",
"iX c #738853",
"pX c #679954",
"aX c #799554",
"sX c #57AB55",
"dX c #77A64B",
"fX c #6BA951",
"gX c #789565",
"hX c #56B868",
"jX c #7DB071",
"kX c #67CC73",
"lX c #86A319",
"zX c #849235",
"xX c #8BAC30",
"cX c #94B83B",
"vX c #97C333",
"bX c #889A49",
"nX c #93904D",
"mX c #859753",
"MX c #AC9856",
"NX c #8CAB50",
"BX c #97B755",
"VX c #A5B05A",
"CX c #8B9A66",
"ZX c #89AA68",
"AX c #94AA66",
"SX c #97B26B",
"DX c #8EB672",
"FX c #A6A56A",
"GX c #96C34E",
"HX c #A5CA4E",
"JX c #97C678",
"KX c #95D27D",
"LX c #A7C77B",
"PX c #A1BD8B",
"IX c #93CB87",
"UX c #AAD293",
/* pixels */
"pXZXgX{.7.@ X @ - 5 [ =XL.w 9 q w w 9 q d w C %.&XxXcX6XH.e.5 % 0 9 9 5 q q w Z / s q 9 % , m +.<X5X(.{ B 0 # d <.( ( ) 1.D f p.",
"0.qXuXoXl.@ - 7 9 p J.U.D e # > 0 q 9 0 B +.G.-XvXcXU.[ [ ' w q d 6 5 5 t r , S / u # 9 h : G 4XGXdXt.A 0 % 9 g { ( v ( <.D p f ",
"a | n.'.T - e q ' F.*.9 * * * @ % w w V M.=XlXxX,XF B O.[ p p i p q 7 $ 9 % > I d.l @ > 7 w }.VXNXQ.A U A w y g | :.( v / ] $.' ",
"..Z  .7.y 8 q } (.q.@ * o X * % 5 p  .F.*X2X,Xi.9 0 V ..C p a p q 9 - $ A A - r q.u # ; 0 A.BXBX`.D y 9 9 5 % 9 3.0.-.l _ H.J.G.",
"F.X...B a a  .u. .f 7 - < 0 M U v e.d.U.`.L.C q w n n w p d q 6 5 9 * @ ' Z @ > ;.f e M C.4X5Xd.a w 9 7 < % @ X A | g l ) H.J.=X",
"M.X.Z C } #.>.{ g <.w w F { 1.9.@.d.e.} t.f 6 p V V B w 9 0 q q w 0 & 5 =.V X - F :.( *.).`.q.a ` ` } C w p q % p ` s t g $.M.H.",
"%.$.X.' B a 8 8 s ( D F o.0.9._ #.i.( e Y f 6 } Z V n 0 9 e 9 5 0 q 5 ` =XJ X * - d ` w.C. .`  .@.#.` C i 9 t ;.r.w.C 9 @ 0 +.F.",
"$.X.Z n S F D 1.0.r.K.&.X.d.9._ ( ;.) 7 % t 6 >.I.P.+.m 9 e 5 7 % 0 q %.*X, X * 9 V X.' a a C q i 6 6 q i q $ 7 x 3.(.Q.9 , n ..",
"m V n ~.].Q.w.*.r.P.K.F.M.d.@.~ 8 d ) 4 @ @ - s 9.;X|.B.m w 9 7 # 9 a =X<XR , > S 4.4.q.C w 0 > $ $ e 7 5 p s q $ 5 D { q } F n ",
"B.N I '.+X@X+XXXY.G.M.F.J.H.a.$.B n ~ 4 @ @ X o % ( b.b.t.D w > @ # a 2X|.R I J Z.Z.4.B.H y r , ; # # @ $ q % q C C p @ 9 t.U.P.",
"NX#Xm.6.~.oX+X.X}.T.Y.*X*X*XM.F < 0 ^ 4 @ * = # m 3.1.( ( <.D e ; o C 2X!.o : y Q.{.|.}.B.m M , # X X X q w @ * - q X.M.P.=.g.6X",
":XtX(.;.U c.oXoX X}.Y.Y.Y.M.G ; # j 9.u X @ & 0 B.).5.t 8 8 v y < # $.zXE.; # 9 d b.tXBXzXN.Q m ; X o @ q d - o X # e C.R.(.x.n.",
"k.z.z.1.( -.c.].^.^.D.A.m.G m : # e >.u @ o # C.bX.X2.A D A P A y k K.<XK 0 0 , , d 9.:XfXNX|.V.m : o @ p p 9 # # q F w.(.Q.x.x.",
";.<.b v ) ( <.x.~.^.W.V././.Q 3 r w  .l $ ; 6.yXdXb.y 3.Q.Q.C.K.L.| I.P.0 0 9 y t < 0 ,.x.:XfXdX|.B.m y s 9 t - 7 p D } i.(.Z.4.",
"{ U v b ) b c b k.~.^.W.V.$XMXV.V F } l 4 S +XaXb.8 9 5.E.8.I d y p K.P.+.C - 9 , m R 8.>.u.n.7XNXbX).} B 9 5 y A a w w ;.x.Z.X.",
"4.2.Y g v b c h z ) c.]. X@XMXD.V w U I w 8._.d.>.j j W l.~.y 5 @ q 3.M 9 - % < m ].+X).L.C.L.I.,X8X5Xu.M @ 5 w D w 9 9 y ;.3.C.",
"E.Q.E.F i q t t 8 8 c z.OX@XD.V 0 >.!.L M d ^ s.d.4.K K W l.M 9 5 w H F Z } O.3.t.{.uXgXaX,XR.U.U.;XI.q.% A 8.M > # > e 9 w w R ",
"6.].{.x.-.g t t 8 8 8 f 7.6.V 0 | {./.L 3 e ^ p.I.).Q.M K I q 5 Y +.Z Z ..4.=.K.K.L.{.gXDXAX6X2X1XH.M.M.&.y.r @ @ X @ ; > > % r ",
"I '.OXz.j.z.k.c d d d F F D B ` f.yX/.N + @ 4 { (.`.K.P.3.O.[ { 2.+.H V +.M.M.r.i.q.u.qXDXUXLXNX1XJ.G.H.M.e X X X X O o # : # : ",
"P 7.'.z.j.z.z.k.;.>.} }  .&.$.p.;XbX/.2 . o . @ ( L.P.M.*.w.r.y.8.2.H Z +.H m F B U -.t.>XIXUXJX6XR.*XH.' o o # X X X   o 3 K : ",
"M Z -.:.9.z.9.9.3.>.;.g D #.@.p.:XNXS.2 . .   X * g Z.3.$.X.#.u.4.R M w ..V 0 B J q w D s.qXIXUXSX6X,XF.Z o @ & X o X o 3 !.l.# ",
"J 2.X.` ` e.t.1.-.U U -.( ( ^ s.tXVX/.2 +     O @ < x ,.{ o.^ g d y r M H o.o.{ D p Z {.[._ _.ZXJXAXiX`.o.X @ @ o o # 3 }.rXy., ",
"R 4.w.*.[ C D >.{ { ;.:.~ u ~ f.fXVX#XQ .       . * k T ,.2.p t 7 e e S 4.F 3.3.[ m.6X>X9.g f d.pXZXgXeX7.@ @ X X o 0 A.zXtXu.V ",
"N.B.B.F B w q { } { g 8 4 $ i d.fXVX#XD.,   .   O * e k l.7.d t % 4 6 y.Z.R S V A.bXtX9.^ ` C f 0.OXpXeXx.% @ X o , B.xXBX5XM.N.",
"P.m.V 0 > > % Z o.a q 5 % # q d.fXMX/.G.m.3 O O X X $ t x.x.d e B f ^ 0.1.R N D.MXyXe.@.p.%.=.' C ] _.:X<.% > h < G 4XHXBX`.C.T.",
"(.3.w > > 9 0 B Z C a y 9 @ 6 9.aXnXA.M.G.m.0 # @ $ t q -.7.U e B [ a.H. .n !.FXmXx.` ` @.H.&XJ.M.Z i.;X) e 9 4 0 |.HXGX(.7.y.).",
"2.y % % 9 w w C o.[ ` q % $ $ <.iX$XB.%.=.C.H 9 - $ e t q p U j < V F.-XJ.T.AXaX>.p q t | &X*X-X=XC.C.I.^ 6 > 0 C.NXBX(.;.3.y.y.",
"d w 9 > % > 0 p Z C q % @ @ * <.^.W.N ' #.=.$.C q t x } } C ;.Y y y F.=X#XNX3X| i p p D g d.I.&X=XF.$.f.@.i w B.zXdXb.:.-.;.t.,.",
"z k y e 9 9 > > 0 9 7 e e e 0 X W L 3 p | ] $.] g g p.f.K.d.K.U.`.r.J.|.XX`.} C a p q p w $.%.a.J.H.a.a./ 6 B {.eXz.( ;.,.l.k.c ",
"z z z k y y e e , > % < * j y. XR : : y ` %.#.| | _ s.&XH.%.F D ;. .U.|.`.' w 0 5 9 w Z X.P.R.,X2X5X;Xg.@.i 5.].t.g ,.8.Y U v c ",
"t t z v P J r y , ; # @ * d Q.~.E.E.L m n X.e.:.| / 9.f.H.H.+.w q q y.;.I K j < % p ` o.} R Q.3XyXyXtX:Xs.@.g 5 y D 5.E.l.A 5 q ",
"t t h v ,.6.S m m * O > e g d e k W W K m V ' { s D | ] ' &.o.9 - - 7 9 t k k S B [ [ C w > J .XzXyXyXfXwX_.d.| a  .4.Q.'.1.s s ",
"h.z t s c z.(.Z.Q 3 , > q p 9 * - % j j < r G X.[ X.K.L.;.% X X * - - 7 e t C B Z ' } p w r r P.4XrXNXdXfX:Xb.u.#.&.i.].[.k.) k.",
"k.) x z t z k.[.5XP.Q m q t ; @ @ o # 1 1 m B.U.H.&X;XK.A O   @ @ @ - e g g p 0 n F U F D b -.U.P.Q.3X5X>X>X_.d.e. .q.).OXb.) k.",
"z.1.T x j 7 4 ~ n.eX.XC.[ w # @ $ o o % A M.R.-XxX8XI.i X X @ $ % $ $ q | a 9 > 0 q 9 d D s $.*X4.A y.>X;X_._.(.| a ' w.d.x.x.x.",
"z.c.1.T J e $ $ 4 ( n.[.(.D # @ - 0 , V F.*XvXGX6XI.e.5 X # @ $ 7 % # q @.| 9 9 e 5 7 9 w p F.lXZ q d 7.x.[.{.{.'.[.n.a.a.[ q.x.",
"f <.1.l.I M r > # $ 5 :.s.4 $ @ % w m.Y.xXHXcXU.$.%.| 5 e r * * - X X > F g 9 w w q e % 0 } 2XxXP.>.a 6 x.].+XuXuXsXs.p B w.K.i.",
"f g d x k J P 0 : ; # A / 4 @ * y ..Y.xXHX6X2.Z r.a.` d A A < * * # J l.].x.,.( i q - @ * { xX6X).).u._.{.+XaXCXsX%Xu > m Z.(.d.",
"x <.<.d y r M y r # # M d.u X @ a G.xXNX`.q 0 F M.%.#.{ D Y P < X l.]. X+X'.z.( q 9 % # @ ] cX.XR Q.[.pXaXmXZXjX9X_ 5 y U ,.1.1.",
"t g { D A n F S y < ; m u.l x m +.U.;Xd.1.y w Z O.d.&.{ F H 4.A l.].+XaXCXwXj.8 9 % @ X X $.xX.XE.x.eXZXZXSXJXhXv.q , x A D d p ",
"` #.&.} ` O.D 9 > - 9 n q.9.Q.Q 6.Z.0./ p.C.F } 7.q.>.} O.M.M.L..XyXmXZXjX9X_ d d A r @ & &.,XE.x.(.rXAXSXJXkX%Xu ; - 9 0 w q w ",
"*.X.F >.L.I.3.y 0 - e w $.g..XV.Q T 8 6 | I.K.4.3.;.d s d Z ..).+XmXAXDXhXv.d -.1.C.K.Z.a H.U.F 2.x.aXZXLXkX0X~ $ < 4 $ < 9 y B ",
"..+.D 8 s U ,.Q.Q.s t { d.:X4X! L : * # 5 | I.U.3.3.U y w w V .XmXCXJXhXv.4 # - 5 e t y s L.K.C.&.Y +XSXKX0X~ i 9 - @ $ $ % y w ",
"M n A d q 5 5 y D p D 0.p._.rXQ + . . o - 9 ^ d.*.P 5.).Q.} H rXSXSXsXv.4 # o o @ * $ $ q 7.y 5 8 t c.fXsX_ q C d 5 @ @ $ 9 q y ",
"y r 9 $ q C C q @ y } @.@.:XnXQ + .     @ @ - t  .q d 5.Q.u.g.3XAXpXn.u % @ X X O @ @ @ = = = & $ 7 l.wX%Xq 0 p w 6 7 % w w 9 9 ",
"w 9 # @ * $ 9 ' M.M.X.] s.>XnX/.L         X X - A Z O.q.9.u.3.(.qXn.l $ $ @ X X o X X X & = = & & - k n.:.y t 5 % 9 p B 0 # % y ",
"y - # * o X @ # ....' ] g.tXnX/.V.,   X     * U S y M { d.I.K.L.b.9.7 @ @ @ o X X     X X & = & & & $ v D d q 5 9 q w w 0 0 9 y ",
"y 5 % $ # # > w C B n C _.dXnXS.M.m.:   O o q Y m , , A >.e.I.U.i.u.P @ @ X X X X       X X @ - @ @ 7 w D >.;.D U d 5 9 w n r y ",
"w 9 % * @ % w D o.8.Q.(.:XmX@XB.$.M.G # X 7 g ;.m r 0 0 M p ;.r.w.;.t % > X X   X X     X X # $ - q p C A D  .>.#.>.g e q A y w ",
"p p p d U -.{ 1.1.x.+XpXsXaX/.G [ } 4.n $ q g I , , 0 9 B k q B F >.s $ F S X X X X       o > % q a g A S ;.w.d.r.0.>.>.{ ;.D d ",
"} C C D } >.0.0.u.x.^.wX9XeX! m a Z o.Z q 5 x I 3 , B } { D w V ].b.8 $ O.o.@ X X o     X X # - 5 q s d d A F { ;.} { C g d q q ",
"C C B M D >.u.L.(.Q.'.v.~ ~.! N w p p Z ` s T R L M A ;.O.C +.3X>X^ = 8 o.B * X X ; M r > % 9 9 9 9 % 9 w w C Y g V B -.D y % % ",
"p a d M w A A ,.y.).[._ $ < W I m w w p ] :.z.5.6.2.I S V B.bXeX:.6 q p *.0 # X r m m 0 B B B A y , # > w Z D } C ..{.x.t 9 # % ",
"9 9 w w q D P t A ;.s.^ 0 e - k W L > q { I._.i.D D m m V.MXyX0.^ { a [ *.9 - e J R G F o.*.y.-.A 0 0 0 0 A D C +.3X3X>.5 9 % % ",
"X # 9 C } } D p ..[.z.7 w q X @ 7 k e p ^ f.,X|.$.` V !.FXbXt.C i g -.w.y.U y P R R R G G 5.x.k.b x P y y 0 n R bXeX0.( a 9 $ o ",
"X > n A ;.3.C +.3X>X#.D C 5 X @ @ 7 e d -.d.|.T.J.F.U.AXiX| q 9 9 e d x.z.b b T l.l.R R m A k.k.b z x x k y R XXrX>. .d.` 9 $ & ",
"q d P I S V B.bXeX( a ' C 0 X @ @ # % 5 g u.].V.m.|.bXeX^ 5 5 9 r r y 3.U c z z h.l.l.l.6.Y g d s x z z x 5. X X8.C o.3. .D g d ",
"/ a d M 3 V.MXyX .{ ] C q 9 @ @ # $ < e 0 B Q.G B.3X).{ p a q 0 m K 8.4.w 8 t t h h.l.~.~.5.-.v s s x x Y ^.].;.w A 2.Z.C.X.%.@.",
"H.%.` n !.FXmXt.C p p w y r 9 $ @ % 9 1 y p ' o.2.t.` ' ` C A n M l.].x.x s t t 8 8 b c.'.k.k.k.h.c T 5.Q.Q.5.A p { x.+XrXP.F.H.",
"J.&XF.R.CXiX{ q 9 9 0 y y 7 q 9 9 9 w w D D p p ` a s { >.q.C.`.C.(.>Xb.c k.E z t 7 8 b z.k.h.k.k.) T x.~.5.S B C { x.jXZXmX`.G.",
"G.G.zXNX3Xf % 5 p p q t t % 5 q 9 5 5 0 D d d w B A p q D } 2.P D t.[.z.) h.k.) x t e t ( <.c z c v T 1.,.D p p D a ( qXDXPXZX|.",
".X|.zX|.o.q q p p p t D p > 9 q q 9 9 % w P d 9 w Z X.=.F.P.C.F 9 D t.( u z ( <.U x x D O.X.a p v U  .4.2.F B Z F { ) :.qXIXUXSX",
"AXyX,X=.' q q q % - 5 #.o.w q q w 9 9 e 9 y x x w ' F.&X*X2X`.A % w C a i q x x g D O.o.X.=.$.] ] r.d.d.=.M.F.F.$.{ ) ( _ wXIXUX",
"JXZXiX).4.- * * o * p =.q.w w p d q 9 t > 9 y D X.J.2XxX8XU.a @ @ # q g a i q U ( { } B w w C ' *.K.d.#.X.X...>.>.-.f ) z.9._.ZX"
};
