/* XPM */
static char *dfce32cddce747439357bc5f748c0d9d9URtfxWraJrmUhdT[] = {
/* columns rows colors chars-per-pixel */
"64 64 54 1 ",
"  c black",
". c #060606",
"X c #090909",
"o c #0E0E0E",
"O c #111111",
"+ c gray8",
"@ c #191919",
"# c gray11",
"$ c gray13",
"% c #272727",
"& c #282828",
"* c gray18",
"= c gray19",
"- c #353535",
"; c gray23",
": c gray24",
"> c #434343",
", c #464646",
"< c #4B4B4B",
"1 c #4C4C4C",
"2 c #535353",
"3 c #555555",
"4 c #585858",
"5 c gray36",
"6 c #626262",
"7 c gray40",
"8 c #686868",
"9 c #6F6F6F",
"0 c gray45",
"q c gray46",
"w c gray48",
"e c gray50",
"r c #838383",
"t c gray52",
"y c #8B8B8B",
"u c #8E8E8E",
"i c #929292",
"p c #979797",
"a c #9B9B9B",
"s c gray62",
"d c #A0A0A0",
"f c gray65",
"g c gray66",
"h c #ACACAC",
"j c gray70",
"k c #B4B4B4",
"l c #BBBBBB",
"z c gray74",
"x c #C0C0C0",
"c c #C6C6C6",
"v c gray79",
"b c gray81",
"n c LightGray",
"m c gray83",
/* pixels */
"                .                                               ",
"X                             .O.                               ",
"@ +-88pscmcs0   $r885--&        . 7h2   $lsi97--  *-----<88888> ",
"O 8nnnnnnnnnb1 6vnnnbnbbbnnnnnv   -mmx8+ 7mmmmmmmmmmmmmmnnnnnnq ",
"o tcccccccccczscccxccccvvvvvvvb   .nbnbce%dbbbbnnnnnnnnnnnnnnn8 ",
"o iccccccvvvvvccvvvvvvccvvvvvvl  . zvvvvcckvcvcvvvvvvccccccvbb7 ",
"O uzzlzzzzlzzlzzzxzxxxxxxccfu71 @ Occccccccxxxxxxxxxxxxxxxxxzx> ",
"+ tlzzzllzzzlkkkllllut52=@      $ &lllzzzzzzzzzzzzzzzzzzzzxzxz& ",
"@ tjkkkkkkkkjjjjjjharr944:**O   % 1zzlzzzzzzllllllkllllllllkkko ",
"# whhhhhhhhhhjjghhhhhjjjjjjjjj+ $ 4jjhhhhjjhhhjhhhhhhhhhhhhhhj. ",
"@ 6jjjjjjjjjhhhhhhghgghhgghhgf- # 3gghhhhhhhhhhhhjjjhhhhhhggfg* ",
"O >fffffffffffgggggffggggffgff5 O 2dfffggsggggggggggghhggffgfg5 ",
". *ffffdffffffdddddddddddddddfr . 5fffdd34fsssssdsffddddddsddsr ",
"  %assaaasaaaaaaaaaaaaafasdffdi . 7sddw$ tasaasaassddsdddfssddd ",
"  &ddsssassssaaaaaaaaaaaassaddy   0sp<  $dddddddddsddssdddddsdd ",
"  %aai0081111111111112q0411:%%$   @%O   %11111111111>%%%%<16qea ",
"  X                                                             ",
"       ..oo.          o+Ooooo                   o               ",
"--$               16*  X         .--58qssy888>o @ $$     -------",
"bnnnnnzsssagnnx   annp$  0ssfmmmmmmmmmmmmmmmmm- @ rnd1.  *lnnnbn",
"nnnnnnbbbbbbbbs . pvvvx84vvvvvvvvvvvvvvvvvvvbn< @ rbbbxe+ oinnnn",
"xxxxxxxxxxxcxx0 X uxxccxcxxxxxxxccxxxxxxxxxxcc< # wxxxxxj<  1lxx",
"zzzzxxxxxxxxxx6 o uzzzzzllzxxxxxccxxxxxxcxxxxx: # wxxxcxxxeo %dx",
"zzzzzzzzzzzzzz, O uxxzzzllzllllkkzllllllllllzz* # 0llzlllllg- .q",
":gkkkkkkkkkkll* + yllllzzllllklkkllkkklllkkkkk& O yljkkkkkkkk7. ",
" ekklklllkkzkk: O rkjjkkjjkkkjjjjkkkjhjjjjjhhg+ # 0hhhhhkkhhjjp&",
"9fffgfggffffhh2 + 2ghgkkkhhghggggggggggggggggg& $ 2ggghgfgffgggd",
"sssddsdddddsdf6 @ #ggghhhhhjjjjkkkjhhhjjirphhh2 # -dddddddfsdddd",
"sffddsddgffgffw O  pffgggggggggggggggffgs-  .&@ O @ssssssssdssss",
"ssssssasssssaat o. afddddsssddddddssssssss5.    O  sssssssssssss",
"aaaaaassssssssq +  aaaaaaaaaaaaaaaaaadassssr@  X&  dsssssaaaaaaa",
"aaaaaaaaaaaaaa8 @  %=120qp0011&%X#%<190ipq04<X  #  %%%%%&111900u",
"                $                               o               ",
"                     .X.                                        ",
"$  ssp888-----+             38i     o-------------<88yssssssss< ",
";  nnmmnnmmnmmnmmmmmmzs0  *hmmm   8vvvvvvvvvvvvbbbbbbbbbbnnnnn1 ",
"<  nnnnbbbnnnnbbbbbbbbz@o8vvvvbO  =bbbbbbbbvvvvcvvcvvcccvvcvvv; ",
"< oxccccvvvcvxxxxxxccc<-jcxxccc@   vccvvccccvvcvcvvvvvbvcccvcc= ",
"; @zxxxzzzzzzzzzzzxxcyuccccccccO  Ollzxzzzzzxxxcccxxxzzzxxcccc, ",
"* +llzlllzzllzzzzzzxczxxxzzzlzz   -lzlllzzzlllkkkkklklkkkllllz7 ",
"# $kklkkkkjjjkkkkkkkkkkkkkkklll   <lllllllllllllkkkkkkkkkkllklr ",
"o *hjjhhhhhgggggggghhjjjkkkkkkk   4kkkkkkkkjkkkkjjjjkhjjjjjjjja ",
"O &ggggghhgfffffffffddffffggggf   ;hhghhhhgghggfhgggggghhhhkhhu ",
"O *ddfddfffffffffffgffffffffffp . #ddddddddddddfffffffffffdgggw ",
"O :dfddddddssdssssddddddgggfffi X .sssssssssssdsssdddfffffffff9 ",
"+ =ssaaaaaaasssssssssssssfffssy oX ysssaasdddddddddddfffsssdss6 ",
"O $sssssssssssssssssdssaaaaaaay .  sssssddddaadaaaadaaaaaaaaad9 ",
"O .%&&%-111300qiaay0002<<1:%&%%    ,10qaasadsddaaddaqq4111121%# ",
"X                                       O#@@OOXX#X              ",
"                                                                ",
"    @---->88881 #o uddddd995--$          $-<898 @ +ddss8888---o ",
"nnnbbbbbbbbvbbs +O jbbbvbbbbbbbbbbbbbbbbbbbbbbg X :nnnnnnnnnnnnn",
"bbbbbnnbvvcccch oo jbbbbvvccvvvvvvvvbbbbbbbbnbc   4bbbvvvvvvvvbb",
"vvvvvvvvvvvvvvh XX hccccccccvvvvvvvvvvvbbbbbbvk   wvvvvvvvvvvcvv",
"cccxccxxccxzxxf X .zllklllzzlzzzzzzzxxxxxxzzzxy . wxxxxxxxccccxc",
"zzzzzllzzzzzzzd X *zzzzzllllkklllllkklllklllll6 o qzzzllzllzzzzz",
"llllllllllzllld . 3lkklklklllkklkkkkkkklllllkk, + 0kkkklllllzzzz",
"jjjjjjkjlzkjjja . 0kkkllzllkkkkjkjkkkjjjjjkzll, + 0jhjkllkkkkkjj",
"ffffffffggffffq X 8ghhkkklkkllllljjhhghghhklll< O 8ggfffffffffff",
"hhhhhhhgggfdfd3 + 6hhhhhhhjjjjjhhhhhggggfggggg3 O 3gfggggggggggh",
"fdfffffffgggff; % 2dssssddssddddggfdsfggddfffd2 + 2dddsddsdssddd",
"fffddffdddfdss$ - ,sssssssssssssssssdsssdsssss< + 3sdsssddddffff",
"sssssadaaaaadd> = :ddsssassssssssssdsassssaaas; O 8dddsdssffdddd",
"00iaaaaaaaaass5 $ O1111138111<&%%%11170q000511O o wsaaaaaaaaaq00"
};
